<svg width="1069" height="233" viewBox="0 0 1069 233" fill="none" xmlns="http://www.w3.org/2000/svg">
<path d="M801.512 191.131C790.479 191.131 780.939 188.787 772.889 184.1C764.887 179.365 758.708 172.783 754.352 164.355C749.996 155.88 747.818 146.055 747.818 134.881C747.818 123.612 749.996 113.763 754.352 105.335C758.708 96.86 764.887 90.2785 772.889 85.591C780.939 80.8562 790.479 78.4888 801.512 78.4888C812.544 78.4888 822.061 80.8562 830.063 85.591C838.112 90.2785 844.315 96.86 848.671 105.335C853.027 113.763 855.205 123.612 855.205 134.881C855.205 146.055 853.027 155.88 848.671 164.355C844.315 172.783 838.112 179.365 830.063 184.1C822.061 188.787 812.544 191.131 801.512 191.131ZM801.654 167.693C806.673 167.693 810.863 166.273 814.225 163.432C817.586 160.544 820.119 156.614 821.824 151.642C823.576 146.671 824.452 141.012 824.452 134.668C824.452 128.323 823.576 122.665 821.824 117.693C820.119 112.722 817.586 108.792 814.225 105.904C810.863 103.015 806.673 101.571 801.654 101.571C796.587 101.571 792.326 103.015 788.87 105.904C785.46 108.792 782.88 112.722 781.128 117.693C779.423 122.665 778.571 128.323 778.571 134.668C778.571 141.012 779.423 146.671 781.128 151.642C782.88 156.614 785.46 160.544 788.87 163.432C792.326 166.273 796.587 167.693 801.654 167.693Z" fill="#3D048D"/>
<path d="M674.807 232.182C665.006 232.182 656.602 230.833 649.594 228.134C642.634 225.482 637.094 221.86 632.975 217.267C628.856 212.674 626.18 207.513 624.949 201.784L652.932 198.02C653.785 200.198 655.134 202.234 656.981 204.128C658.827 206.022 661.266 207.537 664.296 208.673C667.374 209.857 671.114 210.449 675.518 210.449C682.099 210.449 687.52 208.839 691.782 205.619C696.091 202.447 698.245 197.12 698.245 189.639V169.682H696.966C695.641 172.712 693.652 175.577 691.001 178.276C688.349 180.975 684.94 183.176 680.773 184.881C676.607 186.585 671.635 187.438 665.858 187.438C657.667 187.438 650.21 185.544 643.486 181.756C636.81 177.921 631.483 172.073 627.506 164.213C623.576 156.306 621.611 146.315 621.611 134.242C621.611 121.884 623.624 111.562 627.648 103.276C631.673 94.9897 637.023 88.7871 643.699 84.6677C650.423 80.5484 657.786 78.4888 665.787 78.4888C671.895 78.4888 677.009 79.5304 681.128 81.6138C685.248 83.6498 688.562 86.2066 691.072 89.2842C693.628 92.3145 695.593 95.2975 696.966 98.2331H698.103V79.9092H728.145V190.065C728.145 199.346 725.873 207.111 721.327 213.361C716.782 219.611 710.484 224.298 702.435 227.423C694.433 230.596 685.224 232.182 674.807 232.182ZM675.447 164.71C680.323 164.71 684.443 163.503 687.805 161.088C691.214 158.626 693.818 155.122 695.617 150.577C697.464 145.984 698.387 140.492 698.387 134.1C698.387 127.708 697.487 122.168 695.688 117.48C693.889 112.745 691.285 109.076 687.876 106.472C684.466 103.868 680.323 102.565 675.447 102.565C670.475 102.565 666.285 103.915 662.876 106.614C659.466 109.265 656.886 112.958 655.134 117.693C653.382 122.428 652.506 127.897 652.506 134.1C652.506 140.397 653.382 145.842 655.134 150.435C656.933 154.98 659.514 158.508 662.876 161.017C666.285 163.479 670.475 164.71 675.447 164.71Z" fill="#3D048D"/>
<path d="M571.168 189V79.9091H601.423V189H571.168ZM586.366 65.8466C581.868 65.8466 578.009 64.3552 574.79 61.3722C571.617 58.3419 570.031 54.7197 570.031 50.5057C570.031 46.3391 571.617 42.7643 574.79 39.7813C578.009 36.751 581.868 35.2358 586.366 35.2358C590.865 35.2358 594.7 36.751 597.872 39.7813C601.092 42.7643 602.702 46.3391 602.702 50.5057C602.702 54.7197 601.092 58.3419 597.872 61.3722C594.7 64.3552 590.865 65.8466 586.366 65.8466Z" fill="#3D048D"/>
<path d="M551.46 79.9093V102.637H485.764V79.9093H551.46ZM500.678 53.7729H530.934V155.477C530.934 158.271 531.36 160.449 532.213 162.012C533.065 163.527 534.249 164.592 535.764 165.208C537.326 165.823 539.125 166.131 541.161 166.131C542.582 166.131 544.002 166.013 545.423 165.776C546.843 165.492 547.932 165.279 548.69 165.137L553.448 187.651C551.933 188.124 549.803 188.669 547.056 189.284C544.31 189.947 540.972 190.35 537.042 190.492C529.75 190.776 523.358 189.805 517.866 187.58C512.421 185.354 508.183 181.898 505.153 177.21C502.123 172.523 500.631 166.604 500.678 159.455V53.7729Z" fill="#3D048D"/>
<path d="M471.895 111.017L444.197 112.722C443.723 110.354 442.705 108.224 441.143 106.33C439.58 104.388 437.52 102.85 434.964 101.713C432.454 100.529 429.448 99.9376 425.944 99.9376C421.256 99.9376 417.303 100.932 414.083 102.921C410.863 104.862 409.253 107.466 409.253 110.733C409.253 113.337 410.295 115.539 412.378 117.338C414.462 119.137 418.037 120.582 423.103 121.671L442.847 125.648C453.453 127.826 461.36 131.33 466.569 136.159C471.777 140.989 474.381 147.333 474.381 155.193C474.381 162.343 472.274 168.617 468.06 174.014C463.894 179.412 458.164 183.626 450.873 186.656C443.628 189.639 435.271 191.131 425.802 191.131C411.36 191.131 399.855 188.124 391.285 182.111C382.762 176.05 377.767 167.812 376.299 157.395L406.057 155.833C406.957 160.236 409.135 163.598 412.591 165.918C416.048 168.19 420.475 169.327 425.873 169.327C431.176 169.327 435.437 168.309 438.657 166.273C441.924 164.19 443.581 161.514 443.628 158.247C443.581 155.501 442.421 153.252 440.148 151.5C437.876 149.701 434.372 148.328 429.637 147.381L410.745 143.617C400.091 141.486 392.161 137.793 386.952 132.537C381.791 127.281 379.211 120.582 379.211 112.438C379.211 105.43 381.105 99.3931 384.893 94.3268C388.728 89.2605 394.102 85.3543 401.015 82.6081C407.975 79.8619 416.119 78.4888 425.447 78.4888C439.225 78.4888 450.068 81.4007 457.975 87.2246C465.93 93.0484 470.57 100.979 471.895 111.017Z" fill="#3D048D"/>
<path d="M326.636 189V79.9091H356.892V189H326.636ZM341.835 65.8466C337.337 65.8466 333.478 64.3552 330.259 61.3722C327.086 58.3419 325.5 54.7197 325.5 50.5057C325.5 46.3391 327.086 42.7643 330.259 39.7813C333.478 36.751 337.337 35.2358 341.835 35.2358C346.333 35.2358 350.169 36.751 353.341 39.7813C356.561 42.7643 358.17 46.3391 358.17 50.5057C358.17 54.7197 356.561 58.3419 353.341 61.3722C350.169 64.3552 346.333 65.8466 341.835 65.8466Z" fill="#3D048D"/>
<path d="M302.4 43.5454V189H272.145V43.5454H302.4Z" fill="#3D048D"/>
<path d="M198.777 191.131C187.745 191.131 178.204 188.787 170.155 184.1C162.153 179.365 155.974 172.783 151.618 164.355C147.262 155.88 145.084 146.055 145.084 134.881C145.084 123.612 147.262 113.763 151.618 105.335C155.974 96.86 162.153 90.2785 170.155 85.591C178.204 80.8562 187.745 78.4888 198.777 78.4888C209.809 78.4888 219.326 80.8562 227.328 85.591C235.378 90.2785 241.58 96.86 245.936 105.335C250.292 113.763 252.47 123.612 252.47 134.881C252.47 146.055 250.292 155.88 245.936 164.355C241.58 172.783 235.378 179.365 227.328 184.1C219.326 188.787 209.809 191.131 198.777 191.131ZM198.919 167.693C203.938 167.693 208.128 166.273 211.49 163.432C214.852 160.544 217.385 156.614 219.09 151.642C220.842 146.671 221.718 141.012 221.718 134.668C221.718 128.323 220.842 122.665 219.09 117.693C217.385 112.722 214.852 108.792 211.49 105.904C208.128 103.015 203.938 101.571 198.919 101.571C193.853 101.571 189.592 103.015 186.135 105.904C182.726 108.792 180.146 112.722 178.394 117.693C176.689 122.665 175.837 128.323 175.837 134.668C175.837 141.012 176.689 146.671 178.394 151.642C180.146 156.614 182.726 160.544 186.135 163.432C189.592 166.273 193.853 167.693 198.919 167.693Z" fill="#3D048D"/>
<path d="M0.837891 189V43.5454H31.5907V103.56H94.0197V43.5454H124.702V189H94.0197V128.915H31.5907V189H0.837891Z" fill="#3D048D"/>
<rect x="911" y="42.5332" width="45.7556" height="189.467" rx="22.8778" fill="#3D048D"/>
<rect x="1024.8" width="43.8222" height="189.467" rx="21.9111" fill="#3D048D"/>
<rect x="975.133" y="81.1997" width="30.9333" height="64.4444" rx="15.4667" fill="#3D048D"/>
</svg>
